<?xml version="1.0" standalone="no"?>
<!DOCTYPE svg PUBLIC "-//W3C//DTD SVG 1.0//EN" "http://www.w3.org/TR/2001/REC-SVG-20010904/DTD/svg10.dtd">
<svg xmlns="http://www.w3.org/2000/svg" xmlns:xlink="http://www.w3.org/1999/xlink" id="body_1" width="1195" height="235">

<g transform="matrix(1.5986395 0 0 1.5986395 0.8162975 -0)">
	<g transform="matrix(0.1 0 -0 -0.1 0 147)">
        <path d="M3706 1304C 3619 1272 3555 1197 3520 1083C 3504 1030 3501 985 3499 758C 3496 463 3501 435 3566 351C 3662 226 3821 180 3981 230C 4107 269 4186 359 4215 496C 4230 564 4236 784 4224 814C 4219 828 4191 830 4019 830L4019 830L3820 830L3820 690L3820 550L3875 550C 3949 550 3947 521 3872 506C 3777 489 3751 576 3774 835C 3789 1001 3803 1045 3847 1056C 3894 1068 3939 1019 3947 946L3947 946L3953 900L4086 900L4218 900L4225 931C 4235 974 4222 1064 4197 1130C 4170 1202 4093 1280 4026 1303C 3962 1325 3764 1325 3706 1304zM4020 1269C 4111 1228 4175 1138 4190 1029C 4202 945 4196 930 4149 930C 4107 930 4108 928 4095 1015C 4085 1079 4043 1156 4006 1179C 3964 1206 3899 1214 3816 1205C 3730 1196 3693 1171 3655 1095L3655 1095L3625 1035L3622 794C 3618 540 3623 498 3663 440C 3701 383 3743 365 3840 365C 3913 365 3933 369 3977 391L3977 391L4028 418L4064 375L4100 331L4070 310C 4004 263 3949 246 3860 245C 3788 245 3766 249 3718 272C 3651 303 3585 368 3556 430C 3537 471 3535 496 3532 725C 3528 995 3534 1048 3577 1135C 3617 1214 3666 1258 3740 1281C 3754 1285 3812 1289 3870 1289C 3955 1289 3984 1286 4020 1269zM3982 1154C 4018 1135 4058 1054 4067 980L4067 980L4073 929L4030 932C 3988 935 3987 936 3975 985C 3941 1117 3794 1128 3760 1001C 3755 981 3746 897 3739 814C 3718 542 3753 456 3879 475C 3905 479 3932 491 3946 505C 3968 527 3970 538 3970 620L3970 620L3970 710L3910 710L3850 710L3850 755L3850 801L3963 798L4075 795L4072 700C 4066 509 4029 438 3919 406C 3827 378 3754 392 3704 445C 3658 494 3650 544 3650 767C 3650 1073 3679 1148 3805 1171C 3860 1181 3945 1173 3982 1154zM4194 784C 4204 758 4201 598 4189 534C 4178 473 4133 360 4120 360C 4113 360 4050 427 4050 434C 4050 436 4059 457 4069 481C 4091 531 4110 652 4110 741L4110 741L4110 800L4149 800C 4175 800 4190 795 4194 784zM3938 633L3935 585L3893 582L3850 579L3850 629L3850 680L3896 680L3941 680L3938 633z" stroke="none" fill="white" fill-rule="nonzero" />
        <path d="M738 1297C 640 1269 577 1205 529 1085C 507 1029 506 1009 502 785C 498 515 505 459 554 378C 593 313 640 276 713 250C 819 213 984 230 1047 284L1047 284L1075 308L1051 334L1027 359L976 333C 940 315 904 305 854 302C 789 298 777 300 730 326C 673 357 641 391 607 454C 586 493 585 506 585 765L585 765L585 1035L612 1086C 640 1140 705 1205 746 1220C 785 1235 892 1232 941 1215C 1024 1185 1076 1113 1095 1000L1095 1000L1106 935L1141 935L1175 935L1174 1005C 1174 1060 1168 1086 1148 1125C 1116 1187 1045 1255 982 1283C 924 1308 804 1315 738 1297z" stroke="none" fill="white" fill-rule="nonzero" />
        <path d="M6227 1203C 6223 1200 6220 972 6220 698L6220 698L6220 200L6510 200L6800 200L6800 329L6800 458L6630 465L6460 472L6460 521L6460 570L6600 570L6740 570L6740 690L6740 809L6603 812L6465 815L6465 885L6465 955L6633 958L6800 960L6800 1085L6800 1210L6517 1210C 6361 1210 6230 1207 6227 1203zM6770 1135L6770 1100L6550 1100L6330 1100L6330 940L6330 780L6520 780L6710 780L6710 750L6710 720L6520 720L6330 720L6330 581L6330 443L6407 436C 6449 433 6548 430 6627 430L6627 430L6770 430L6770 395L6770 360L6513 362L6255 365L6252 768L6250 1170L6510 1170L6770 1170L6770 1135zM6768 1028L6771 990L6618 990L6464 990L6425 1030L6385 1070L6575 1068L6765 1065L6768 1028zM6430 893L6430 810L6395 810L6360 810L6360 927L6360 1044L6395 1010C 6429 977 6430 975 6430 893zM6704 682C 6707 677 6707 657 6703 637L6703 637L6697 600L6582 600L6466 600L6428 637C 6407 657 6390 678 6390 682C 6390 693 6697 692 6704 682zM6430 528L6430 470L6395 470L6360 470L6360 562L6360 654L6395 620C 6427 589 6430 581 6430 528zM6770 280L6770 230L6513 232L6255 235L6252 268C 6246 333 6235 330 6515 330L6515 330L6770 330L6770 280z" stroke="none" fill="white" fill-rule="nonzero" />
        <path d="M814 1189C 792 1185 756 1174 735 1165L735 1165L696 1149L726 1119C 753 1093 760 1090 784 1100C 823 1115 886 1112 920 1095C 954 1077 978 1036 988 977C 995 937 997 935 1033 932C 1066 929 1070 931 1070 951C 1070 1001 1036 1091 1004 1129C 959 1181 889 1204 814 1189z" stroke="none" fill="white" fill-rule="nonzero" />
        <path d="M1559 1189C 1459 1174 1387 1113 1349 1011C 1331 961 1329 938 1332 684L1332 684L1335 412L1375 354C 1397 322 1434 282 1458 266C 1495 240 1512 235 1577 231C 1672 227 1751 244 1791 277L1791 277L1821 303L1800 325C 1778 348 1778 348 1747 330C 1699 303 1605 288 1558 301C 1506 315 1442 374 1414 435C 1391 483 1390 496 1390 702C 1390 951 1400 997 1467 1062C 1515 1109 1546 1120 1626 1120C 1696 1120 1736 1105 1783 1061C 1851 999 1860 944 1852 670C 1846 480 1842 450 1824 413L1824 413L1803 371L1825 350L1847 329L1872 358C 1916 410 1922 456 1918 715L1918 715L1915 955L1886 1017C 1826 1148 1704 1212 1559 1189z" stroke="none" fill="white" fill-rule="nonzero" />
        <path d="M2810 750L2810 310L3080 310L3350 310L3350 346L3350 383L3125 378L2900 373L2900 531L2900 690L3095 690L3290 690L3290 729L3290 768L3096 772C 2989 773 2899 778 2895 782C 2891 786 2891 863 2895 954L2895 954L2902 1120L3126 1120L3350 1120L3350 1155L3350 1190L3080 1190L2810 1190L2810 750z" stroke="none" fill="white" fill-rule="nonzero" />
        <path d="M4671 1158C 4664 1140 4591 925 4508 680C 4425 435 4355 229 4353 223C 4349 213 4379 210 4483 210L4483 210L4617 210L4642 277L4667 345L4765 345C 4875 345 4864 354 4890 253L4890 253L4901 210L5036 210C 5146 210 5171 213 5168 224C 5166 231 5093 452 5005 714L5005 714L4845 1190L4763 1190L4682 1190L4671 1158zM4770 1146C 4770 1138 4725 1001 4671 841L4671 841L4571 550L4690 550C 4798 550 4810 548 4820 531C 4825 520 4830 509 4830 506C 4830 503 4768 499 4693 498L4693 498L4557 495L4515 370L4473 245L4437 242C 4417 240 4400 243 4400 248C 4400 259 4698 1138 4706 1151C 4715 1166 4770 1162 4770 1146zM4974 700C 5054 461 5120 259 5120 252C 5120 243 5109 240 5084 242L5084 242L5048 245L4934 600C 4871 795 4817 962 4814 970C 4811 978 4789 909 4765 815C 4701 563 4710 585 4662 582C 4639 580 4620 581 4620 584C 4620 586 4663 714 4715 866C 4767 1019 4810 1146 4810 1149C 4810 1177 4849 1070 4974 700zM4914 554C 4967 388 5010 250 5010 246C 5010 234 4929 240 4925 253C 4923 259 4914 291 4905 323L4905 323L4889 380L4777 380L4665 380L4638 419C 4622 441 4610 461 4610 464C 4610 467 4670 471 4744 472L4744 472L4878 475L4828 599L4779 724L4796 792C 4805 830 4814 860 4815 858C 4817 856 4861 719 4914 554zM4774 582C 4739 577 4736 583 4751 627L4751 627L4763 665L4781 625L4799 585L4774 582zM4627 344C 4624 328 4615 297 4606 277C 4592 243 4588 240 4549 240C 4520 240 4509 244 4513 253C 4515 259 4530 305 4546 353L4546 353L4575 442L4603 408C 4625 383 4630 368 4627 344z" stroke="none" fill="white" fill-rule="nonzero" />
        <path d="M5280 705L5280 220L5410 220L5540 220L5541 393L5541 565L5586 478L5630 390L5694 390L5758 390L5804 473L5849 555L5850 388L5850 220L5975 220L6100 220L6100 705L6100 1190L6008 1190L5915 1190L5811 999L5707 809L5686 842C 5674 860 5622 944 5569 1030L5569 1030L5473 1185L5377 1188L5280 1191L5280 705zM5545 799C 5657 605 5746 442 5743 438C 5741 433 5719 430 5695 430C 5642 430 5646 425 5496 735L5496 735L5390 955L5390 602L5390 250L5350 250L5310 250L5310 698C 5310 945 5313 1150 5317 1154C 5321 1157 5328 1159 5333 1157C 5339 1155 5434 994 5545 799zM5556 988C 5615 893 5687 771 5716 717L5716 717L5767 618L5865 802C 5919 902 5984 1024 6009 1072C 6034 1120 6058 1160 6063 1160C 6067 1160 6070 955 6070 705L6070 705L6070 250L6030 250L5990 250L5995 353C 5998 409 6002 570 6004 710L6004 710L6009 965L5980 905C 5964 872 5915 771 5871 680C 5827 589 5785 507 5778 497C 5766 482 5747 512 5605 762C 5517 917 5430 1070 5412 1102L5412 1102L5379 1160L5414 1160C 5448 1160 5450 1157 5556 988zM6010 1154C 6010 1143 5775 700 5769 700C 5766 700 5755 718 5745 739L5745 739L5728 778L5820 947C 5945 1174 5934 1160 5975 1160C 5994 1160 6010 1157 6010 1154zM5499 453L5500 250L5460 250L5420 250L5421 533L5422 815L5460 735L5499 655L5499 453zM5965 423L5958 250L5919 250L5880 250L5880 430L5880 610L5923 704L5965 797L5968 696C 5970 640 5968 517 5965 423z" stroke="none" fill="white" fill-rule="nonzero" />
        <path d="M2070 755L2070 340L2240 340C 2433 340 2457 346 2509 405C 2565 470 2569 488 2572 716L2572 716L2575 925L2548 983C 2510 1063 2467 1083 2315 1088L2315 1088L2205 1092L2239 1056C 2271 1023 2278 1020 2331 1020C 2409 1020 2434 1008 2467 959C 2495 917 2495 916 2498 716C 2501 535 2499 512 2482 480C 2451 423 2414 410 2273 410L2273 410L2150 410L2150 790L2150 1170L2110 1170L2070 1170L2070 755z" stroke="none" fill="white" fill-rule="nonzero" />
        <path d="M2170 1147C 2170 1123 2171 1123 2316 1116C 2478 1109 2516 1098 2549 1052C 2594 988 2600 951 2600 713C 2600 534 2597 482 2585 453C 2576 432 2564 412 2557 408C 2548 402 2553 392 2574 374C 2601 350 2603 350 2621 366C 2631 375 2647 405 2657 434C 2672 477 2674 522 2674 725C 2674 900 2670 976 2660 1005C 2637 1073 2601 1118 2547 1145C 2499 1169 2487 1170 2333 1170L2333 1170L2170 1170L2170 1147z" stroke="none" fill="white" fill-rule="nonzero" />
        <path d="M651 1079C 619 985 612 589 641 483C 656 427 712 377 785 354C 833 339 849 338 897 348C 970 363 1029 404 1051 455C 1072 504 1084 589 1075 630C 1070 655 1063 660 1041 660C 1014 660 1013 658 1007 591C 1001 513 983 472 943 440C 920 422 905 419 857 422C 790 427 755 449 727 503C 710 536 707 569 702 754C 699 906 701 981 710 1019C 721 1065 720 1073 705 1090C 680 1118 664 1115 651 1079z" stroke="none" fill="white" fill-rule="nonzero" />
        <path d="M1551 1074C 1492 1049 1486 1040 1511 1014C 1531 992 1534 992 1557 1007C 1588 1028 1661 1027 1693 1005C 1748 970 1755 934 1755 710C 1754 519 1753 502 1733 464C 1683 370 1548 365 1505 456C 1493 481 1490 529 1490 687C 1490 796 1495 903 1500 925C 1508 961 1507 968 1485 989L1485 989L1461 1014L1443 974C 1429 941 1426 901 1425 715C 1425 474 1430 443 1482 385C 1542 315 1692 314 1758 383C 1812 439 1823 484 1827 690C 1832 862 1830 879 1810 933C 1786 997 1742 1053 1699 1076C 1663 1094 1595 1093 1551 1074z" stroke="none" fill="white" fill-rule="nonzero" />
        <path d="M2960 1083C 2960 1078 2974 1060 2990 1043L2990 1043L3020 1010L3185 1010L3350 1010L3350 1050L3350 1090L3155 1090C 3048 1090 2960 1087 2960 1083z" stroke="none" fill="white" fill-rule="nonzero" />
        <path d="M2170 756L2170 440L2210 440L2250 440L2250 724L2250 1008L2210 1040L2170 1072L2170 756z" stroke="none" fill="white" fill-rule="nonzero" />
        <path d="M2922 930L2925 795L2958 792L2990 789L2990 892L2990 996L2955 1030L2919 1065L2922 930z" stroke="none" fill="white" fill-rule="nonzero" />
        <path d="M2961 653C 3010 588 3003 590 3147 590L3147 590L3280 590L3280 630L3280 670L3114 670C 2957 670 2948 669 2961 653z" stroke="none" fill="white" fill-rule="nonzero" />
        <path d="M1098 563C 1095 485 1090 457 1073 428L1073 428L1052 392L1080 365L1108 338L1133 382C 1168 441 1182 502 1178 585L1178 585L1175 655L1139 658L1102 661L1098 563z" stroke="none" fill="white" fill-rule="nonzero" />
        <path d="M2922 523L2925 415L2958 412L2990 409L2990 492C 2990 571 2988 578 2962 603C 2947 618 2931 630 2927 630C 2923 630 2921 582 2922 523z" stroke="none" fill="white" fill-rule="nonzero" />
        <path d="M2482 340L2450 310L2260 310L2070 310L2070 275L2070 240L2265 240C 2473 240 2509 246 2557 292L2557 292L2580 314L2553 342C 2538 357 2524 370 2521 370C 2518 370 2500 356 2482 340z" stroke="none" fill="white" fill-rule="nonzero" />
        <path d="M2810 260L2810 230L3080 230L3350 230L3350 260L3350 290L3080 290L2810 290L2810 260z" stroke="none" fill="white" fill-rule="nonzero" />
	</g>
</g>
</svg>